<svg width="54" height="31" viewBox="0 0 54 31" fill="none" xmlns="http://www.w3.org/2000/svg">
<path d="M10.1936 23.3884C18.8603 22.9084 25.5803 22.3751 30.3536 21.7884C29.9003 23.1751 29.5536 24.6418 29.3136 26.1884C29.0736 27.7351 28.9536 29.1351 28.9536 30.3884H0.353589L0.313589 29.5484C0.313589 26.9351 1.07359 24.6684 2.59359 22.7484C4.14026 20.8284 6.28692 19.0551 9.03359 17.4284C9.83359 16.9484 11.0869 16.3351 12.7936 15.5884C15.0069 14.6284 16.7136 13.7884 17.9136 13.0684C19.1136 12.3218 19.7136 11.5884 19.7136 10.8684C19.7136 9.96176 19.3403 9.24176 18.5936 8.70843C17.8469 8.17509 16.6869 7.90843 15.1136 7.90843C13.3803 7.90843 12.0603 8.34843 11.1536 9.22843C10.2736 10.1084 9.83359 11.2284 9.83359 12.5884C9.83359 13.0151 9.87359 13.4551 9.95359 13.9084C6.59359 13.4818 3.32692 13.1884 0.153589 13.0284C0.153589 10.7618 0.740256 8.72176 1.91359 6.90843C3.11359 5.06843 4.90026 3.61509 7.27359 2.54843C9.67359 1.48176 12.6069 0.948425 16.0736 0.948425C19.2469 0.948425 21.8869 1.38843 23.9936 2.26843C26.1269 3.12176 27.6869 4.21509 28.6736 5.54843C29.6869 6.85509 30.1936 8.20176 30.1936 9.58843C30.1936 11.1884 29.8336 12.5618 29.1136 13.7084C28.4203 14.8551 27.4069 15.8818 26.0736 16.7884C24.7669 17.6684 23.0069 18.6284 20.7936 19.6684C20.4736 19.8284 19.9536 20.0151 19.2336 20.2284C18.5136 20.4151 18.0603 20.5351 17.8736 20.5884C15.9803 21.1484 14.4736 21.6151 13.3536 21.9884C12.2336 22.3618 11.1803 22.8284 10.1936 23.3884Z" fill="black"/>
<path d="M46.512 12.8684H53.632V20.6684H46.512V27.8284H38.712V20.6684H31.552V12.8684H38.712V5.70843H46.512V12.8684Z" fill="#2B788B"/>
</svg>
