<svg width="135" height="39" viewBox="0 0 135 39" fill="none" xmlns="http://www.w3.org/2000/svg">
<g filter="url(#filter0_d_35_3895)">
<path d="M24.28 10.5484C26.3867 10.5484 28.3067 10.9884 30.04 11.8684C31.7733 12.7218 33.1333 13.8818 34.12 15.3484C35.1333 16.8151 35.64 18.3884 35.64 20.0684C35.64 22.2551 34.9467 24.1618 33.56 25.7884C32.1733 27.4151 30.2933 28.6551 27.92 29.5084C25.5467 30.3618 22.8933 30.7884 19.96 30.7884C16.9733 30.7884 14.3067 30.2018 11.96 29.0284C9.64 27.8284 7.82667 26.1751 6.52 24.0684C5.24 21.9618 4.6 19.5618 4.6 16.8684C4.6 11.5084 6.08 7.52176 9.04 4.90843C12.0267 2.26843 16.04 0.948425 21.08 0.948425C27.2133 0.948425 32.0533 2.49509 35.6 5.58843C34 7.29509 32.5333 9.17509 31.2 11.2284C30.1333 10.4284 28.6267 9.78843 26.68 9.30843C24.76 8.80176 23.04 8.54843 21.52 8.54843C19.2 8.54843 17.2533 9.13509 15.68 10.3084C14.1067 11.4551 13.1467 13.1084 12.8 15.2684C12.7733 15.4018 12.76 15.5884 12.76 15.8284C14.04 13.9618 15.72 12.6151 17.8 11.7884C19.9067 10.9618 22.0667 10.5484 24.28 10.5484ZM20.36 23.1884C21.3733 23.1884 22.32 23.0551 23.2 22.7884C24.08 22.4951 24.7733 22.1084 25.28 21.6284C25.7867 21.1218 26.04 20.5884 26.04 20.0284C26.04 19.1484 25.48 18.4018 24.36 17.7884C23.2667 17.1484 21.9333 16.8284 20.36 16.8284C18.7867 16.8284 17.44 17.1484 16.32 17.7884C15.2267 18.4018 14.68 19.1484 14.68 20.0284C14.68 20.5884 14.9333 21.1218 15.44 21.6284C15.9467 22.1084 16.64 22.4951 17.52 22.7884C18.4 23.0551 19.3467 23.1884 20.36 23.1884ZM54.8178 30.7884C49.0845 30.7884 44.8578 29.4684 42.1378 26.8284C39.4178 24.1884 38.0578 20.5218 38.0578 15.8284C38.0578 11.1618 39.4178 7.52176 42.1378 4.90843C44.8845 2.26843 49.1111 0.948425 54.8178 0.948425C60.5245 0.948425 64.7378 2.26843 67.4578 4.90843C70.1778 7.52176 71.5378 11.1618 71.5378 15.8284C71.5378 20.5218 70.1778 24.1884 67.4578 26.8284C64.7378 29.4684 60.5245 30.7884 54.8178 30.7884ZM54.8578 23.7884C57.3111 23.7884 59.0978 23.0418 60.2178 21.5484C61.3378 20.0284 61.8978 18.1218 61.8978 15.8284C61.8978 13.5618 61.3378 11.6818 60.2178 10.1884C59.0978 8.66843 57.3111 7.90843 54.8578 7.90843C52.3245 7.90843 50.4845 8.66843 49.3378 10.1884C48.2178 11.6818 47.6578 13.5618 47.6578 15.8284C47.6578 18.0951 48.2178 19.9884 49.3378 21.5084C50.4845 23.0284 52.3245 23.7884 54.8578 23.7884ZM90.6975 30.7884C84.9642 30.7884 80.7375 29.4684 78.0175 26.8284C75.2975 24.1884 73.9375 20.5218 73.9375 15.8284C73.9375 11.1618 75.2975 7.52176 78.0175 4.90843C80.7642 2.26843 84.9908 0.948425 90.6975 0.948425C96.4042 0.948425 100.618 2.26843 103.338 4.90843C106.058 7.52176 107.418 11.1618 107.418 15.8284C107.418 20.5218 106.058 24.1884 103.338 26.8284C100.618 29.4684 96.4042 30.7884 90.6975 30.7884ZM90.7375 23.7884C93.1908 23.7884 94.9775 23.0418 96.0975 21.5484C97.2175 20.0284 97.7775 18.1218 97.7775 15.8284C97.7775 13.5618 97.2175 11.6818 96.0975 10.1884C94.9775 8.66843 93.1908 7.90843 90.7375 7.90843C88.2042 7.90843 86.3642 8.66843 85.2175 10.1884C84.0975 11.6818 83.5375 13.5618 83.5375 15.8284C83.5375 18.0951 84.0975 19.9884 85.2175 21.5084C86.3642 23.0284 88.2042 23.7884 90.7375 23.7884Z" fill="black"/>
<path d="M123.577 12.8684H130.697V20.6684H123.577V27.8284H115.777V20.6684H108.617V12.8684H115.777V5.70843H123.577V12.8684Z" fill="#2B788B"/>
</g>
<defs>
<filter id="filter0_d_35_3895" x="0.600098" y="0.948486" width="134.097" height="37.8398" filterUnits="userSpaceOnUse" color-interpolation-filters="sRGB">
<feFlood flood-opacity="0" result="BackgroundImageFix"/>
<feColorMatrix in="SourceAlpha" type="matrix" values="0 0 0 0 0 0 0 0 0 0 0 0 0 0 0 0 0 0 127 0" result="hardAlpha"/>
<feOffset dy="4"/>
<feGaussianBlur stdDeviation="2"/>
<feComposite in2="hardAlpha" operator="out"/>
<feColorMatrix type="matrix" values="0 0 0 0 0 0 0 0 0 0 0 0 0 0 0 0 0 0 0.25 0"/>
<feBlend mode="normal" in2="BackgroundImageFix" result="effect1_dropShadow_35_3895"/>
<feBlend mode="normal" in="SourceGraphic" in2="effect1_dropShadow_35_3895" result="shape"/>
</filter>
</defs>
</svg>
